<?xml version="1.0" encoding="iso-8859-1"?>
<!-- Generator: Adobe Illustrator 21.0.0, SVG Export Plug-In . SVG Version: 6.00 Build 0)  -->
<svg version="1.1" id="Layer_1" xmlns="http://www.w3.org/2000/svg" xmlns:xlink="http://www.w3.org/1999/xlink" x="0px" y="0px"
	 viewBox="0 0 99.313 99.313" style="enable-background:new 0 0 99.313 99.313;" xml:space="preserve">
<path style="fill:#231F20;" d="M85.449,20.138H29.503c-5.918,0-10.732,4.335-10.732,9.665v14.051H8.425
	c-3.116,0-5.65,2.533-5.65,5.647v15.514c0,3.115,2.535,5.65,5.65,5.65h6.67c0.633,4.602,4.582,8.161,9.358,8.161
	c4.671,0,8.552-3.411,9.308-7.871h31.896c0.756,4.46,4.638,7.871,9.311,7.871c4.671,0,8.55-3.411,9.305-7.871h10.366
	c0.724,0,1.345-0.517,1.476-1.229l0.049-0.266c0.017-0.089,0.024-0.18,0.024-0.271V29.803
	C96.188,24.473,91.371,20.138,85.449,20.138z M21.77,31.303h14.323v12.625L21.77,43.93V31.303z M39.093,31.303h17.664v12.622
	l-17.664,0.003V31.303z M59.757,31.303h17.312v12.618l-17.312,0.003V31.303z M80.069,31.303h13.119v12.616l-13.119,0.002V31.303z
	 M29.502,23.138h55.946c3.668,0,6.741,2.211,7.534,5.165H21.974C22.767,25.349,25.838,23.138,29.502,23.138z M24.454,75.825
	c-3.561,0-6.457-2.894-6.457-6.451c0-3.559,2.896-6.455,6.457-6.455c3.558,0,6.451,2.896,6.451,6.455
	C30.905,72.931,28.011,75.825,24.454,75.825z M74.968,75.825c-3.559,0-6.454-2.894-6.454-6.451c0-3.559,2.896-6.455,6.454-6.455
	c3.556,0,6.448,2.896,6.448,6.455C81.417,72.931,78.524,75.825,74.968,75.825z M84.298,67.954c-0.688-4.541-4.603-8.035-9.33-8.035
	c-4.729,0-8.647,3.495-9.336,8.035H33.786c-0.688-4.541-4.605-8.035-9.333-8.035c-4.63,0-8.486,3.346-9.294,7.745H8.424
	c-1.461,0-2.65-1.189-2.65-2.65V49.5c0-1.459,1.189-2.647,2.65-2.647h11.66c0.001,0,0.002,0,0.003,0
	c0.144,0.046,0.294,0.078,0.454,0.078l72.646-0.012v21.036L84.298,67.954L84.298,67.954z"/>
</svg>
