<?xml version="1.0" encoding="iso-8859-1"?>
<!-- Generator: Adobe Illustrator 21.0.0, SVG Export Plug-In . SVG Version: 6.00 Build 0)  -->
<svg version="1.1" id="Layer_1" xmlns="http://www.w3.org/2000/svg" xmlns:xlink="http://www.w3.org/1999/xlink" x="0px" y="0px"
	 viewBox="0 0 100 100" style="enable-background:new 0 0 100 100;" xml:space="preserve">
<g>
	<path style="fill:#231F20;" d="M85.992,34.428l-18.73-0.012c-2.218-6.125-7.851-10.454-14.327-11.039v-6.519h10.906
		c0.829,0,1.5-0.671,1.5-1.5c0-0.828-0.671-1.5-1.5-1.5H39.34c-0.829,0-1.5,0.672-1.5,1.5c0,0.829,0.671,1.5,1.5,1.5h10.595v6.51
		c-6.675,0.546-12.001,4.733-14.051,11.058l-10.843-0.012c-5.875,0-10.715,4.52-11.226,10.265c-0.029,0.117-0.044,0.239-0.044,0.365
		v8.44c0,0.829,0.671,1.5,1.5,1.5H24.4c0.829,0,1.5-0.671,1.5-1.5v-6.94h9.971c2.581,6.278,8.698,10.428,15.564,10.428
		c6.857,0,12.982-4.143,15.566-10.416H85.99c0.829,0,1.5-0.671,1.5-1.5v-9.128C87.491,35.1,86.82,34.429,85.992,34.428z
		 M84.491,43.556H65.956c-0.685,0-1.271,0.463-1.445,1.109c-1.929,5.571-7.172,9.307-13.076,9.307
		c-5.775,0-10.903-3.574-12.932-8.938c-0.006-0.787-0.618-1.423-1.391-1.479c-0.125-0.018-0.251-0.025-0.38-0.011H24.4
		c-0.829,0-1.5,0.671-1.5,1.5v6.94h-6.129v-6.298c0-4.561,3.71-8.272,8.269-8.272l11.962,0.013c0.001,0,0.002,0,0.003,0
		c0.002,0,0.005-0.001,0.007-0.001c0.151,0,0.294-0.03,0.432-0.072c0.026-0.008,0.051-0.014,0.077-0.024
		c0.134-0.049,0.258-0.116,0.371-0.199c0.021-0.016,0.04-0.033,0.06-0.05c0.113-0.093,0.216-0.197,0.298-0.319
		c0.004-0.006,0.007-0.014,0.011-0.02c0.081-0.125,0.14-0.264,0.181-0.41c0.004-0.014,0.013-0.024,0.017-0.038
		c1.53-6.068,6.623-9.989,12.977-9.989c6.146,0,11.617,4.122,13.303,10.023c0.002,0.008,0.007,0.015,0.009,0.022
		c0.025,0.083,0.056,0.162,0.095,0.238c0.009,0.017,0.018,0.033,0.027,0.05c0.037,0.067,0.078,0.13,0.125,0.19
		c0.016,0.021,0.032,0.04,0.049,0.059c0.045,0.052,0.092,0.101,0.143,0.146c0.023,0.021,0.047,0.04,0.071,0.059
		c0.05,0.039,0.101,0.075,0.156,0.107c0.031,0.019,0.062,0.035,0.094,0.051c0.051,0.025,0.102,0.048,0.156,0.068
		c0.042,0.016,0.085,0.028,0.129,0.04c0.046,0.012,0.092,0.023,0.14,0.031c0.057,0.01,0.114,0.015,0.172,0.018
		c0.024,0.001,0.047,0.007,0.071,0.007l18.317,0.012v6.13H84.491z"/>
	<path style="fill:#231F20;" d="M21.814,59.399c-0.23-0.564-0.779-0.932-1.388-0.932s-1.158,0.368-1.388,0.932
		c-0.229,0.56-5.617,13.755-6.443,18.643c0,0.001,0,0.001,0,0.002c-0.307,1.835,0.229,3.679,1.508,5.191
		c1.518,1.793,3.941,2.907,6.324,2.907c2.385,0,4.809-1.115,6.325-2.91c1.278-1.512,1.811-3.355,1.501-5.19
		C27.428,73.154,22.043,59.958,21.814,59.399z M24.46,81.295c-0.962,1.139-2.508,1.846-4.034,1.846c-1.525,0-3.07-0.707-4.034-1.845
		c-0.495-0.585-1.042-1.538-0.839-2.755c0.523-3.095,3.193-10.215,4.873-14.517c1.679,4.302,4.347,11.422,4.869,14.517
		C25.499,79.758,24.954,80.711,24.46,81.295z"/>
</g>
</svg>
