<?xml version="1.0" encoding="iso-8859-1"?>
<!-- Generator: Adobe Illustrator 21.0.2, SVG Export Plug-In . SVG Version: 6.00 Build 0)  -->
<svg version="1.1" id="Layer_1" xmlns="http://www.w3.org/2000/svg" xmlns:xlink="http://www.w3.org/1999/xlink" x="0px" y="0px"
	 viewBox="0 0 100.75 100.749" style="enable-background:new 0 0 100.75 100.749;" xml:space="preserve">
<path d="M92.787,4.901H75.118c-0.829,0-1.5,0.671-1.5,1.5v5.538c-34.126,0.657-61.737,28.335-62.282,62.488H7.212
	c-0.829,0-1.5,0.671-1.5,1.5V93.6c0,0.829,0.671,1.5,1.5,1.5h50.974c0.829,0,1.5-0.671,1.5-1.5V75.926c0-0.829-0.671-1.5-1.5-1.5
	h-7.708c0.398-12.514,10.584-22.594,23.14-22.821v5.773c0,0.829,0.671,1.5,1.5,1.5h17.669c0.829,0,1.5-0.671,1.5-1.5V6.4
	C94.287,5.572,93.616,4.901,92.787,4.901z M49.778,64.344L18.757,52.712c2.81-6.907,6.857-13.18,11.87-18.546l23.445,23.498
	C52.327,59.652,50.874,61.901,49.778,64.344z M56.686,92.099H8.712V77.426h47.974V92.099z M14.336,74.426
	c0.111-6.613,1.284-12.969,3.361-18.908l31.007,11.626c-0.733,2.307-1.154,4.751-1.226,7.281L14.336,74.426L14.336,74.426z
	 M56.17,55.519L32.729,32.025c5.895-5.72,12.942-10.255,20.762-13.214l9.244,32.317C60.329,52.264,58.117,53.748,56.17,55.519z
	 M65.534,50.001l-9.206-32.183c5.468-1.762,11.273-2.757,17.29-2.879v33.667C70.795,48.65,68.079,49.138,65.534,50.001z
	 M91.287,55.878H76.618V7.9h14.669V55.878z"/>
</svg>
