<?xml version="1.0" encoding="iso-8859-1"?>
<!-- Generator: Adobe Illustrator 21.0.0, SVG Export Plug-In . SVG Version: 6.00 Build 0)  -->
<svg version="1.1" id="Layer_1" xmlns="http://www.w3.org/2000/svg" xmlns:xlink="http://www.w3.org/1999/xlink" x="0px" y="0px"
	 viewBox="0 0 100.353 100.352" style="enable-background:new 0 0 100.353 100.352;" xml:space="preserve">
<path d="M49.235,95.105c-10.794,0-20.624-5.943-25.672-15.515c-2.935-4.517-4.686-12.004-4.686-20.051
	c0-8.755,3.072-18.657,9.131-29.431c4.484-7.974,8.906-13.332,9.092-13.557c0.454-0.545,1.228-0.698,1.854-0.369
	c0.627,0.331,0.938,1.056,0.743,1.739c-0.053,0.185-4.766,16.952-2.917,30.202c3.271-7.345,8.771-25.18,10.801-43.716
	c0.07-0.642,0.544-1.167,1.175-1.303c0.632-0.135,1.279,0.147,1.607,0.704c0.304,0.514,7.467,12.778,10.479,29.762
	c0.366,1.917,0.635,4.196,0.92,6.61c0.195,1.651,0.394,3.332,0.629,4.921c2.621-5.315,4.558-14.133,5.176-17.721
	c0.108-0.627,0.6-1.118,1.228-1.224c0.628-0.104,1.254,0.195,1.562,0.752c0.364,0.657,8.915,16.317,8.915,35.36
	c0,6.631-1.471,12.761-3.938,16.436C70.51,88.671,60.278,95.105,49.235,95.105z M35.137,24.31
	c-5.19,7.688-13.26,21.802-13.26,35.229c0,7.522,1.583,14.426,4.234,18.468c0.027,0.041,0.052,0.083,0.075,0.126
	c4.518,8.618,13.349,13.972,23.048,13.972c9.934,0,19.136-5.809,23.443-14.799c0.033-0.069,0.071-0.136,0.115-0.199
	c2.146-3.135,3.479-8.821,3.479-14.838c0-12.776-4.131-24.185-6.646-29.946c-1.204,5.348-3.575,14.06-6.907,17.783
	c-0.373,0.417-0.948,0.592-1.489,0.453c-0.542-0.138-0.962-0.567-1.089-1.112c-0.615-2.634-0.993-5.827-1.357-8.915
	c-0.279-2.359-0.542-4.588-0.892-6.419C55.992,23.4,52.317,14.5,49.959,9.553c-2.949,20.979-9.777,40.568-12.755,43.831
	c-0.371,0.405-0.932,0.575-1.464,0.446c-0.533-0.13-0.952-0.542-1.093-1.072C32.187,43.499,33.689,31.743,35.137,24.31z"/>
</svg>
